<mxfile host="app.diagrams.net" modified="2021-04-13T17:44:53.616Z" agent="5.0 (Windows NT 10.0; Win64; x64) AppleWebKit/537.36 (KHTML, like Gecko) Chrome/89.0.4389.114 Safari/537.36" etag="a6geqV12d_RytVfCqRV_" version="14.6.0" type="github">
  <diagram id="0pFRvqJE33JjUD_LoRNb" name="Page-1">
    <mxGraphModel dx="1014" dy="529" grid="1" gridSize="10" guides="1" tooltips="1" connect="1" arrows="0" fold="1" page="1" pageScale="1" pageWidth="827" pageHeight="1169" math="0" shadow="0">
      <root>
        <mxCell id="0" />
        <mxCell id="1" parent="0" />
        <mxCell id="emIkGcH2skiWqO1f7UCi-37" value="Cliente" style="rounded=0;whiteSpace=wrap;html=1;" vertex="1" parent="1">
          <mxGeometry x="40" y="170" width="510" height="80" as="geometry" />
        </mxCell>
        <mxCell id="emIkGcH2skiWqO1f7UCi-38" value="nome" style="ellipse;whiteSpace=wrap;html=1;" vertex="1" parent="1">
          <mxGeometry x="20" y="40" width="90" height="60" as="geometry" />
        </mxCell>
        <mxCell id="emIkGcH2skiWqO1f7UCi-41" value="cpf" style="ellipse;whiteSpace=wrap;html=1;" vertex="1" parent="1">
          <mxGeometry x="120" y="40" width="90" height="60" as="geometry" />
        </mxCell>
        <mxCell id="emIkGcH2skiWqO1f7UCi-42" value="email" style="ellipse;whiteSpace=wrap;html=1;" vertex="1" parent="1">
          <mxGeometry x="250" y="40" width="90" height="60" as="geometry" />
        </mxCell>
        <mxCell id="emIkGcH2skiWqO1f7UCi-43" value="cnh" style="ellipse;whiteSpace=wrap;html=1;" vertex="1" parent="1">
          <mxGeometry x="369" y="40" width="90" height="60" as="geometry" />
        </mxCell>
        <mxCell id="emIkGcH2skiWqO1f7UCi-44" value="telefone" style="ellipse;whiteSpace=wrap;html=1;" vertex="1" parent="1">
          <mxGeometry x="485" y="40" width="90" height="60" as="geometry" />
        </mxCell>
        <mxCell id="emIkGcH2skiWqO1f7UCi-45" value="" style="shape=filledEdge;rounded=0;fixDash=1;endArrow=none;strokeWidth=10;fillColor=#ffffff;edgeStyle=orthogonalEdgeStyle;exitX=0.5;exitY=0;exitDx=0;exitDy=0;entryX=0.5;entryY=1;entryDx=0;entryDy=0;" edge="1" parent="1" source="emIkGcH2skiWqO1f7UCi-37" target="emIkGcH2skiWqO1f7UCi-38">
          <mxGeometry width="60" height="40" relative="1" as="geometry">
            <mxPoint x="420" y="120" as="sourcePoint" />
            <mxPoint x="480" y="80" as="targetPoint" />
          </mxGeometry>
        </mxCell>
        <mxCell id="emIkGcH2skiWqO1f7UCi-46" value="" style="shape=filledEdge;rounded=0;fixDash=1;endArrow=none;strokeWidth=10;fillColor=#ffffff;edgeStyle=orthogonalEdgeStyle;exitX=0.5;exitY=0;exitDx=0;exitDy=0;entryX=0.5;entryY=1;entryDx=0;entryDy=0;" edge="1" parent="1" source="emIkGcH2skiWqO1f7UCi-37" target="emIkGcH2skiWqO1f7UCi-41">
          <mxGeometry width="60" height="40" relative="1" as="geometry">
            <mxPoint x="345.0000000000002" y="160" as="sourcePoint" />
            <mxPoint x="140" y="90" as="targetPoint" />
          </mxGeometry>
        </mxCell>
        <mxCell id="emIkGcH2skiWqO1f7UCi-47" value="" style="shape=filledEdge;rounded=0;fixDash=1;endArrow=none;strokeWidth=10;fillColor=#ffffff;edgeStyle=orthogonalEdgeStyle;entryX=0.5;entryY=1;entryDx=0;entryDy=0;exitX=0.5;exitY=0;exitDx=0;exitDy=0;" edge="1" parent="1" source="emIkGcH2skiWqO1f7UCi-37" target="emIkGcH2skiWqO1f7UCi-42">
          <mxGeometry width="60" height="40" relative="1" as="geometry">
            <mxPoint x="290" y="160" as="sourcePoint" />
            <mxPoint x="205.00000000000023" y="110" as="targetPoint" />
          </mxGeometry>
        </mxCell>
        <mxCell id="emIkGcH2skiWqO1f7UCi-49" value="" style="shape=filledEdge;rounded=0;fixDash=1;endArrow=none;strokeWidth=10;fillColor=#ffffff;edgeStyle=orthogonalEdgeStyle;exitX=0.5;exitY=0;exitDx=0;exitDy=0;" edge="1" parent="1" source="emIkGcH2skiWqO1f7UCi-37" target="emIkGcH2skiWqO1f7UCi-43">
          <mxGeometry width="60" height="40" relative="1" as="geometry">
            <mxPoint x="325.0000000000002" y="200" as="sourcePoint" />
            <mxPoint x="225" y="140" as="targetPoint" />
          </mxGeometry>
        </mxCell>
        <mxCell id="emIkGcH2skiWqO1f7UCi-50" value="" style="shape=filledEdge;rounded=0;fixDash=1;endArrow=none;strokeWidth=10;fillColor=#ffffff;edgeStyle=orthogonalEdgeStyle;exitX=0.5;exitY=0;exitDx=0;exitDy=0;entryX=0.5;entryY=1;entryDx=0;entryDy=0;" edge="1" parent="1" source="emIkGcH2skiWqO1f7UCi-37" target="emIkGcH2skiWqO1f7UCi-44">
          <mxGeometry width="60" height="40" relative="1" as="geometry">
            <mxPoint x="305.0000000000002" y="180" as="sourcePoint" />
            <mxPoint x="424" y="110" as="targetPoint" />
          </mxGeometry>
        </mxCell>
        <mxCell id="emIkGcH2skiWqO1f7UCi-51" value="Carro&lt;br&gt;" style="rounded=0;whiteSpace=wrap;html=1;" vertex="1" parent="1">
          <mxGeometry x="495" y="420" width="230" height="100" as="geometry" />
        </mxCell>
        <mxCell id="emIkGcH2skiWqO1f7UCi-52" value="Aluga" style="rhombus;whiteSpace=wrap;html=1;" vertex="1" parent="1">
          <mxGeometry x="530" y="290" width="160" height="80" as="geometry" />
        </mxCell>
        <mxCell id="emIkGcH2skiWqO1f7UCi-53" value="" style="shape=filledEdge;rounded=0;fixDash=1;endArrow=none;strokeWidth=10;fillColor=#ffffff;edgeStyle=orthogonalEdgeStyle;exitX=1.004;exitY=0.395;exitDx=0;exitDy=0;exitPerimeter=0;" edge="1" parent="1" source="emIkGcH2skiWqO1f7UCi-37" target="emIkGcH2skiWqO1f7UCi-52">
          <mxGeometry width="60" height="40" relative="1" as="geometry">
            <mxPoint x="420" y="460" as="sourcePoint" />
            <mxPoint x="610" y="260" as="targetPoint" />
            <Array as="points">
              <mxPoint x="610" y="202" />
            </Array>
          </mxGeometry>
        </mxCell>
        <mxCell id="emIkGcH2skiWqO1f7UCi-54" value="" style="shape=filledEdge;rounded=0;fixDash=1;endArrow=none;strokeWidth=10;fillColor=#ffffff;edgeStyle=orthogonalEdgeStyle;entryX=0.5;entryY=1;entryDx=0;entryDy=0;" edge="1" parent="1" target="emIkGcH2skiWqO1f7UCi-52">
          <mxGeometry width="60" height="40" relative="1" as="geometry">
            <mxPoint x="610" y="420" as="sourcePoint" />
            <mxPoint x="480" y="420" as="targetPoint" />
          </mxGeometry>
        </mxCell>
      </root>
    </mxGraphModel>
  </diagram>
</mxfile>
